<mxfile host="www.draw.io" modified="2019-12-05T09:32:15.617Z" agent="Mozilla/5.0 (Windows NT 10.0; Win64; x64) AppleWebKit/537.36 (KHTML, like Gecko) Chrome/78.0.3904.87 Safari/537.36" etag="zAcBXjXISBsQ762yNf2_" version="12.3.6" type="github" pages="1">
  <diagram name="Page-1" id="74e2e168-ea6b-b213-b513-2b3c1d86103e">
    <mxGraphModel dx="782" dy="437" grid="1" gridSize="10" guides="1" tooltips="1" connect="1" arrows="1" fold="1" page="1" pageScale="1" pageWidth="1100" pageHeight="850" background="#ffffff" math="0" shadow="0">
      <root>
        <mxCell id="0"/>
        <mxCell id="1" parent="0"/>
        <mxCell id="77e6c97f196da883-1" value="Quotation Verification" style="swimlane;html=1;childLayout=stackLayout;startSize=20;rounded=0;shadow=0;labelBackgroundColor=none;strokeWidth=1;fontFamily=Verdana;fontSize=8;align=center;" parent="1" vertex="1">
          <mxGeometry x="70" y="40" width="1120" height="1460" as="geometry"/>
        </mxCell>
        <mxCell id="77e6c97f196da883-2" value="Dealer" style="swimlane;html=1;startSize=20;" parent="77e6c97f196da883-1" vertex="1">
          <mxGeometry y="20" width="240" height="1440" as="geometry"/>
        </mxCell>
        <mxCell id="77e6c97f196da883-8" value="判断PMS Dealer No.是否为空" style="rounded=1;whiteSpace=wrap;html=1;shadow=0;labelBackgroundColor=none;strokeWidth=1;fontFamily=Verdana;fontSize=8;align=center;" parent="77e6c97f196da883-2" vertex="1">
          <mxGeometry x="20" y="65" width="100" height="60" as="geometry"/>
        </mxCell>
        <mxCell id="77e6c97f196da883-13" value="为空" style="rhombus;whiteSpace=wrap;html=1;rounded=0;shadow=0;labelBackgroundColor=none;strokeWidth=1;fontFamily=Verdana;fontSize=8;align=center;" parent="77e6c97f196da883-2" vertex="1">
          <mxGeometry x="30" y="155" width="80" height="60" as="geometry"/>
        </mxCell>
        <mxCell id="77e6c97f196da883-30" value="否" style="edgeStyle=orthogonalEdgeStyle;rounded=1;html=1;labelBackgroundColor=none;startArrow=none;startFill=0;startSize=5;endArrow=classicThin;endFill=1;endSize=5;jettySize=auto;orthogonalLoop=1;strokeWidth=1;fontFamily=Verdana;fontSize=8" parent="77e6c97f196da883-2" source="77e6c97f196da883-13" edge="1">
          <mxGeometry x="0.2" relative="1" as="geometry">
            <mxPoint x="70" y="250" as="targetPoint"/>
            <mxPoint as="offset"/>
          </mxGeometry>
        </mxCell>
        <mxCell id="77e6c97f196da883-26" style="edgeStyle=orthogonalEdgeStyle;rounded=1;html=1;labelBackgroundColor=none;startArrow=none;startFill=0;startSize=5;endArrow=classicThin;endFill=1;endSize=5;jettySize=auto;orthogonalLoop=1;strokeWidth=1;fontFamily=Verdana;fontSize=8;entryX=0.5;entryY=0;entryDx=0;entryDy=0;" parent="77e6c97f196da883-2" source="77e6c97f196da883-8" target="77e6c97f196da883-13" edge="1">
          <mxGeometry relative="1" as="geometry">
            <mxPoint x="70" y="160" as="targetPoint"/>
          </mxGeometry>
        </mxCell>
        <mxCell id="s-7z_2EK09W1QtDXRIaZ-14" value="判断MSRP是否为空" style="rounded=1;whiteSpace=wrap;html=1;shadow=0;labelBackgroundColor=none;strokeWidth=1;fontFamily=Verdana;fontSize=8;align=center;" vertex="1" parent="77e6c97f196da883-2">
          <mxGeometry x="20" y="250" width="100" height="60" as="geometry"/>
        </mxCell>
        <mxCell id="77e6c97f196da883-39" style="edgeStyle=orthogonalEdgeStyle;rounded=1;html=1;labelBackgroundColor=none;startArrow=none;startFill=0;startSize=5;endArrow=classicThin;endFill=1;endSize=5;jettySize=auto;orthogonalLoop=1;strokeWidth=1;fontFamily=Verdana;fontSize=8" parent="77e6c97f196da883-1" edge="1">
          <mxGeometry relative="1" as="geometry">
            <mxPoint x="600" y="690" as="sourcePoint"/>
            <mxPoint x="560" y="720" as="targetPoint"/>
          </mxGeometry>
        </mxCell>
        <mxCell id="77e6c97f196da883-40" style="edgeStyle=orthogonalEdgeStyle;rounded=1;html=1;labelBackgroundColor=none;startArrow=none;startFill=0;startSize=5;endArrow=classicThin;endFill=1;endSize=5;jettySize=auto;orthogonalLoop=1;strokeWidth=1;fontFamily=Verdana;fontSize=8" parent="77e6c97f196da883-1" edge="1">
          <mxGeometry relative="1" as="geometry">
            <mxPoint x="610" y="690" as="sourcePoint"/>
            <mxPoint x="560" y="720" as="targetPoint"/>
          </mxGeometry>
        </mxCell>
        <mxCell id="107ba76e4e335f99-1" style="edgeStyle=orthogonalEdgeStyle;rounded=1;html=1;labelBackgroundColor=none;startArrow=none;startFill=0;startSize=5;endArrow=classicThin;endFill=1;endSize=5;jettySize=auto;orthogonalLoop=1;strokeWidth=1;fontFamily=Verdana;fontSize=8" parent="77e6c97f196da883-1" edge="1">
          <mxGeometry relative="1" as="geometry">
            <mxPoint x="610" y="450" as="sourcePoint"/>
            <mxPoint x="560" y="480" as="targetPoint"/>
          </mxGeometry>
        </mxCell>
        <mxCell id="107ba76e4e335f99-3" style="edgeStyle=orthogonalEdgeStyle;rounded=1;html=1;labelBackgroundColor=none;startArrow=none;startFill=0;startSize=5;endArrow=classicThin;endFill=1;endSize=5;jettySize=auto;orthogonalLoop=1;strokeColor=#000000;strokeWidth=1;fontFamily=Verdana;fontSize=8;fontColor=#000000;" parent="77e6c97f196da883-1" edge="1">
          <mxGeometry relative="1" as="geometry">
            <mxPoint x="560" y="580" as="sourcePoint"/>
            <mxPoint x="610" y="610" as="targetPoint"/>
          </mxGeometry>
        </mxCell>
        <mxCell id="77e6c97f196da883-3" value="Asset" style="swimlane;html=1;startSize=20;" parent="77e6c97f196da883-1" vertex="1">
          <mxGeometry x="240" y="20" width="290" height="1440" as="geometry"/>
        </mxCell>
        <mxCell id="77e6c97f196da883-11" value="判断Asset Model Id是否为空" style="rounded=1;whiteSpace=wrap;html=1;shadow=0;labelBackgroundColor=none;strokeWidth=1;fontFamily=Verdana;fontSize=8;align=center;" parent="77e6c97f196da883-3" vertex="1">
          <mxGeometry x="30" y="65" width="100" height="60" as="geometry"/>
        </mxCell>
        <mxCell id="s-7z_2EK09W1QtDXRIaZ-9" style="edgeStyle=orthogonalEdgeStyle;rounded=1;html=1;labelBackgroundColor=none;startArrow=none;startFill=0;startSize=5;endArrow=classicThin;endFill=1;endSize=5;jettySize=auto;orthogonalLoop=1;strokeWidth=1;fontFamily=Verdana;fontSize=8;entryX=0.5;entryY=0;entryDx=0;entryDy=0;" edge="1" target="s-7z_2EK09W1QtDXRIaZ-11" parent="77e6c97f196da883-3">
          <mxGeometry relative="1" as="geometry">
            <mxPoint x="80" y="123" as="sourcePoint"/>
            <mxPoint x="10" y="97.5" as="targetPoint"/>
          </mxGeometry>
        </mxCell>
        <mxCell id="s-7z_2EK09W1QtDXRIaZ-10" value="否" style="edgeStyle=orthogonalEdgeStyle;rounded=1;html=1;labelBackgroundColor=none;startArrow=none;startFill=0;startSize=5;endArrow=classicThin;endFill=1;endSize=5;jettySize=auto;orthogonalLoop=1;strokeWidth=1;fontFamily=Verdana;fontSize=8" edge="1" source="s-7z_2EK09W1QtDXRIaZ-11" parent="77e6c97f196da883-3">
          <mxGeometry x="0.2" relative="1" as="geometry">
            <mxPoint x="80" y="248" as="targetPoint"/>
            <mxPoint as="offset"/>
          </mxGeometry>
        </mxCell>
        <mxCell id="s-7z_2EK09W1QtDXRIaZ-11" value="为空" style="rhombus;whiteSpace=wrap;html=1;rounded=0;shadow=0;labelBackgroundColor=none;strokeWidth=1;fontFamily=Verdana;fontSize=8;align=center;" vertex="1" parent="77e6c97f196da883-3">
          <mxGeometry x="40" y="152.5" width="80" height="60" as="geometry"/>
        </mxCell>
        <mxCell id="s-7z_2EK09W1QtDXRIaZ-18" style="edgeStyle=orthogonalEdgeStyle;rounded=1;html=1;labelBackgroundColor=none;startArrow=none;startFill=0;startSize=5;endArrow=classicThin;endFill=1;endSize=5;jettySize=auto;orthogonalLoop=1;strokeWidth=1;fontFamily=Verdana;fontSize=8;entryX=0.5;entryY=0;entryDx=0;entryDy=0;" edge="1" target="s-7z_2EK09W1QtDXRIaZ-19" parent="77e6c97f196da883-3">
          <mxGeometry relative="1" as="geometry">
            <mxPoint x="80" y="310" as="sourcePoint"/>
            <mxPoint x="-220" y="225" as="targetPoint"/>
          </mxGeometry>
        </mxCell>
        <mxCell id="s-7z_2EK09W1QtDXRIaZ-19" value="为空" style="rhombus;whiteSpace=wrap;html=1;rounded=0;shadow=0;labelBackgroundColor=none;strokeWidth=1;fontFamily=Verdana;fontSize=8;align=center;" vertex="1" parent="77e6c97f196da883-3">
          <mxGeometry x="40" y="340" width="80" height="60" as="geometry"/>
        </mxCell>
        <mxCell id="s-7z_2EK09W1QtDXRIaZ-20" value="否" style="edgeStyle=orthogonalEdgeStyle;rounded=1;html=1;labelBackgroundColor=none;startArrow=none;startFill=0;startSize=5;endArrow=classicThin;endFill=1;endSize=5;jettySize=auto;orthogonalLoop=1;strokeWidth=1;fontFamily=Verdana;fontSize=8" edge="1" source="s-7z_2EK09W1QtDXRIaZ-19" parent="77e6c97f196da883-3">
          <mxGeometry x="0.2" relative="1" as="geometry">
            <mxPoint x="80" y="435" as="targetPoint"/>
            <mxPoint as="offset"/>
          </mxGeometry>
        </mxCell>
        <mxCell id="s-7z_2EK09W1QtDXRIaZ-35" style="edgeStyle=orthogonalEdgeStyle;rounded=0;orthogonalLoop=1;jettySize=auto;html=1;exitX=0.5;exitY=1;exitDx=0;exitDy=0;entryX=0.5;entryY=0;entryDx=0;entryDy=0;endArrow=classicThin;endFill=1;" edge="1" parent="77e6c97f196da883-3" source="s-7z_2EK09W1QtDXRIaZ-28" target="s-7z_2EK09W1QtDXRIaZ-31">
          <mxGeometry relative="1" as="geometry"/>
        </mxCell>
        <mxCell id="s-7z_2EK09W1QtDXRIaZ-28" value="判断Asset Condition Code是否为空" style="rounded=1;whiteSpace=wrap;html=1;shadow=0;labelBackgroundColor=none;strokeWidth=1;fontFamily=Verdana;fontSize=8;align=center;" vertex="1" parent="77e6c97f196da883-3">
          <mxGeometry x="30" y="437" width="100" height="60" as="geometry"/>
        </mxCell>
        <mxCell id="s-7z_2EK09W1QtDXRIaZ-30" value="判断MSRP是否为空" style="rounded=1;whiteSpace=wrap;html=1;shadow=0;labelBackgroundColor=none;strokeWidth=1;fontFamily=Verdana;fontSize=8;align=center;" vertex="1" parent="77e6c97f196da883-3">
          <mxGeometry x="30" y="250" width="100" height="60" as="geometry"/>
        </mxCell>
        <mxCell id="s-7z_2EK09W1QtDXRIaZ-37" value="否" style="edgeStyle=orthogonalEdgeStyle;rounded=0;orthogonalLoop=1;jettySize=auto;html=1;exitX=0.5;exitY=1;exitDx=0;exitDy=0;entryX=0.5;entryY=0;entryDx=0;entryDy=0;endArrow=classicThin;endFill=1;" edge="1" parent="77e6c97f196da883-3" source="s-7z_2EK09W1QtDXRIaZ-31" target="s-7z_2EK09W1QtDXRIaZ-16">
          <mxGeometry relative="1" as="geometry"/>
        </mxCell>
        <mxCell id="s-7z_2EK09W1QtDXRIaZ-31" value="为空" style="rhombus;whiteSpace=wrap;html=1;rounded=0;shadow=0;labelBackgroundColor=none;strokeWidth=1;fontFamily=Verdana;fontSize=8;align=center;" vertex="1" parent="77e6c97f196da883-3">
          <mxGeometry x="40" y="530" width="80" height="60" as="geometry"/>
        </mxCell>
        <mxCell id="s-7z_2EK09W1QtDXRIaZ-41" style="edgeStyle=orthogonalEdgeStyle;rounded=0;orthogonalLoop=1;jettySize=auto;html=1;exitX=0.5;exitY=1;exitDx=0;exitDy=0;entryX=0.5;entryY=0;entryDx=0;entryDy=0;endArrow=classicThin;endFill=1;" edge="1" parent="77e6c97f196da883-3" source="s-7z_2EK09W1QtDXRIaZ-16" target="s-7z_2EK09W1QtDXRIaZ-40">
          <mxGeometry relative="1" as="geometry"/>
        </mxCell>
        <mxCell id="s-7z_2EK09W1QtDXRIaZ-16" value="判断Asset Condition Code是否合法" style="rounded=1;whiteSpace=wrap;html=1;shadow=0;labelBackgroundColor=none;strokeWidth=1;fontFamily=Verdana;fontSize=8;align=center;" vertex="1" parent="77e6c97f196da883-3">
          <mxGeometry x="30" y="630" width="100" height="60" as="geometry"/>
        </mxCell>
        <mxCell id="s-7z_2EK09W1QtDXRIaZ-44" value="是" style="edgeStyle=orthogonalEdgeStyle;rounded=0;orthogonalLoop=1;jettySize=auto;html=1;exitX=0.5;exitY=1;exitDx=0;exitDy=0;entryX=0.5;entryY=0;entryDx=0;entryDy=0;endArrow=classicThin;endFill=1;" edge="1" parent="77e6c97f196da883-3" source="s-7z_2EK09W1QtDXRIaZ-40">
          <mxGeometry relative="1" as="geometry">
            <mxPoint x="80" y="820" as="targetPoint"/>
          </mxGeometry>
        </mxCell>
        <mxCell id="s-7z_2EK09W1QtDXRIaZ-40" value="New/Demo/Used&lt;br&gt;之一且LC申请只能是New Car" style="rhombus;whiteSpace=wrap;html=1;rounded=0;shadow=0;labelBackgroundColor=none;strokeWidth=1;fontFamily=Verdana;fontSize=8;align=center;" vertex="1" parent="77e6c97f196da883-3">
          <mxGeometry x="40" y="720" width="80" height="60" as="geometry"/>
        </mxCell>
        <mxCell id="77e6c97f196da883-10" value="根据Asset Model Id, Model Year, Company Id, NST获取车的信息" style="rounded=1;whiteSpace=wrap;html=1;shadow=0;labelBackgroundColor=none;strokeWidth=1;fontFamily=Verdana;fontSize=8;align=center;" parent="77e6c97f196da883-3" vertex="1">
          <mxGeometry x="30" y="820" width="100" height="60" as="geometry"/>
        </mxCell>
        <mxCell id="s-7z_2EK09W1QtDXRIaZ-46" value="为空" style="rhombus;whiteSpace=wrap;html=1;rounded=0;shadow=0;labelBackgroundColor=none;strokeWidth=1;fontFamily=Verdana;fontSize=8;align=center;" vertex="1" parent="77e6c97f196da883-3">
          <mxGeometry x="40" y="1030" width="80" height="60" as="geometry"/>
        </mxCell>
        <mxCell id="s-7z_2EK09W1QtDXRIaZ-48" style="edgeStyle=orthogonalEdgeStyle;rounded=0;orthogonalLoop=1;jettySize=auto;html=1;exitX=0.5;exitY=1;exitDx=0;exitDy=0;entryX=0.5;entryY=0;entryDx=0;entryDy=0;endArrow=classicThin;endFill=1;fontSize=8;" edge="1" parent="77e6c97f196da883-3" source="s-7z_2EK09W1QtDXRIaZ-45" target="s-7z_2EK09W1QtDXRIaZ-46">
          <mxGeometry relative="1" as="geometry"/>
        </mxCell>
        <mxCell id="s-7z_2EK09W1QtDXRIaZ-45" value="判断是否成功获取车的信息" style="rounded=1;whiteSpace=wrap;html=1;shadow=0;labelBackgroundColor=none;strokeWidth=1;fontFamily=Verdana;fontSize=8;align=center;" vertex="1" parent="77e6c97f196da883-3">
          <mxGeometry x="30" y="930" width="100" height="60" as="geometry"/>
        </mxCell>
        <mxCell id="s-7z_2EK09W1QtDXRIaZ-47" style="edgeStyle=orthogonalEdgeStyle;rounded=0;orthogonalLoop=1;jettySize=auto;html=1;exitX=0.5;exitY=1;exitDx=0;exitDy=0;entryX=0.5;entryY=0;entryDx=0;entryDy=0;endArrow=classicThin;endFill=1;fontSize=8;" edge="1" parent="77e6c97f196da883-3" source="77e6c97f196da883-10" target="s-7z_2EK09W1QtDXRIaZ-45">
          <mxGeometry relative="1" as="geometry">
            <mxPoint x="160" y="890" as="sourcePoint"/>
          </mxGeometry>
        </mxCell>
        <mxCell id="77e6c97f196da883-4" value="Financial Product" style="swimlane;html=1;startSize=20;" parent="77e6c97f196da883-1" vertex="1">
          <mxGeometry x="530" y="20" width="350" height="1440" as="geometry"/>
        </mxCell>
        <mxCell id="s-7z_2EK09W1QtDXRIaZ-24" style="edgeStyle=orthogonalEdgeStyle;rounded=0;orthogonalLoop=1;jettySize=auto;html=1;exitX=0.5;exitY=1;exitDx=0;exitDy=0;endArrow=classicThin;endFill=1;" edge="1" parent="77e6c97f196da883-4" source="s-7z_2EK09W1QtDXRIaZ-21" target="s-7z_2EK09W1QtDXRIaZ-22">
          <mxGeometry relative="1" as="geometry"/>
        </mxCell>
        <mxCell id="s-7z_2EK09W1QtDXRIaZ-21" value="用Dealer和Asset信息获取金融产品" style="rounded=1;whiteSpace=wrap;html=1;shadow=0;labelBackgroundColor=none;strokeWidth=1;fontFamily=Verdana;fontSize=8;align=center;" vertex="1" parent="77e6c97f196da883-4">
          <mxGeometry x="30" y="65" width="100" height="60" as="geometry"/>
        </mxCell>
        <mxCell id="s-7z_2EK09W1QtDXRIaZ-23" style="edgeStyle=orthogonalEdgeStyle;rounded=0;orthogonalLoop=1;jettySize=auto;html=1;exitX=0.5;exitY=1;exitDx=0;exitDy=0;entryX=0.5;entryY=0;entryDx=0;entryDy=0;endArrow=classicThin;endFill=1;" edge="1" parent="77e6c97f196da883-4" source="s-7z_2EK09W1QtDXRIaZ-22" target="s-7z_2EK09W1QtDXRIaZ-1">
          <mxGeometry relative="1" as="geometry"/>
        </mxCell>
        <mxCell id="s-7z_2EK09W1QtDXRIaZ-22" value="判断是否获取到金融产品" style="rounded=1;whiteSpace=wrap;html=1;shadow=0;labelBackgroundColor=none;strokeWidth=1;fontFamily=Verdana;fontSize=8;align=center;" vertex="1" parent="77e6c97f196da883-4">
          <mxGeometry x="30" y="157.5" width="100" height="60" as="geometry"/>
        </mxCell>
        <mxCell id="s-7z_2EK09W1QtDXRIaZ-1" value="为空" style="rhombus;whiteSpace=wrap;html=1;rounded=0;shadow=0;labelBackgroundColor=none;strokeWidth=1;fontFamily=Verdana;fontSize=8;align=center;" vertex="1" parent="77e6c97f196da883-4">
          <mxGeometry x="40" y="250" width="80" height="60" as="geometry"/>
        </mxCell>
      </root>
    </mxGraphModel>
  </diagram>
</mxfile>
